<?xml version="1.0" standalone="no"?>
<!DOCTYPE svg PUBLIC "-//W3C//DTD SVG 20010904//EN"
 "http://www.w3.org/TR/2001/REC-SVG-20010904/DTD/svg10.dtd">
<svg version="1.0" xmlns="http://www.w3.org/2000/svg"
 width="704.000000pt" height="704.000000pt" viewBox="0 0 704.000000 704.000000"
 preserveAspectRatio="xMidYMid meet">
<metadata>
Created by potrace 1.14, written by Peter Selinger 2001-2017
</metadata>
<g transform="translate(0.000000,704.000000) scale(0.100000,-0.100000)"
fill="#000000" stroke="none">
<path d="M899 6393 c-1 -5 -2 -19 -4 -33 -2 -21 -13 -89 -29 -185 -2 -11 -7
-40 -10 -65 -4 -25 -14 -88 -22 -140 -20 -124 -22 -137 -29 -190 -3 -25 -8
-52 -10 -60 -2 -8 -7 -35 -10 -60 -8 -57 -16 -107 -20 -130 -2 -10 -6 -40 -10
-67 -3 -26 -10 -70 -15 -98 -9 -46 -13 -75 -26 -165 -3 -19 -7 -47 -10 -62 -3
-15 -7 -42 -10 -60 -8 -55 -13 -87 -20 -131 -3 -23 -7 -51 -9 -62 -1 -11 -3
-20 -4 -20 -1 0 -4 -13 -6 -30 -7 -55 -14 -99 -24 -165 -6 -36 -13 -83 -16
-105 -4 -22 -8 -51 -11 -65 -6 -30 -12 -70 -20 -130 -9 -66 -10 -72 -18 -110
-4 -19 -9 -48 -10 -65 -2 -16 -6 -46 -9 -65 -4 -19 -13 -78 -22 -130 -8 -52
-17 -111 -20 -130 -4 -19 -8 -48 -10 -65 -3 -32 -7 -58 -31 -199 -8 -49 -17
-105 -20 -125 -2 -20 -6 -47 -8 -61 -10 -62 -18 -110 -27 -170 -5 -36 -12 -78
-16 -95 -3 -16 -6 -39 -8 -50 -1 -11 -5 -36 -8 -55 -4 -19 -9 -53 -12 -75 -3
-22 -10 -66 -16 -98 -6 -33 -12 -73 -14 -90 -2 -18 -6 -50 -10 -72 -3 -22 -8
-51 -10 -65 -9 -57 -16 -96 -20 -120 -6 -31 -12 -72 -19 -130 -3 -25 -8 -54
-10 -65 -2 -11 -7 -40 -11 -65 -4 -25 -9 -52 -10 -60 -1 -8 -6 -40 -10 -70 -4
-30 -9 -64 -11 -75 -3 -11 -7 -38 -10 -60 -3 -22 -7 -51 -10 -65 -3 -14 -8
-41 -10 -60 -3 -19 -7 -46 -10 -60 -3 -14 -7 -44 -9 -68 -3 -24 -6 -46 -9 -50
-2 -4 -7 -36 -11 -72 -4 -36 -8 -67 -10 -70 -2 -3 -6 -26 -9 -50 -4 -25 -9
-56 -11 -70 -3 -14 -7 -45 -10 -70 -3 -25 -7 -52 -10 -60 -4 -16 -15 -88 -20
-135 -2 -16 -4 -30 -5 -30 -2 0 -5 -18 -14 -85 -3 -25 -8 -56 -11 -70 -2 -14
-7 -38 -9 -55 -6 -40 -18 -116 -21 -135 -7 -41 -16 -98 -20 -127 l-4 -33 258
0 c199 0 258 3 258 13 0 6 6 41 11 77 6 36 14 83 17 105 3 23 7 50 9 62 3 11
12 70 21 129 9 60 18 120 20 133 3 13 7 45 11 70 4 25 8 55 11 66 2 11 6 38 9
60 3 22 7 49 9 61 3 12 7 39 10 60 5 34 27 173 41 259 2 17 6 44 9 60 2 17 6
41 9 55 3 14 7 43 10 65 3 22 7 51 10 65 5 29 26 158 31 192 2 13 6 43 9 68 4
25 8 52 11 60 2 8 7 39 10 69 4 30 9 63 11 75 6 30 13 75 19 121 5 38 13 88
22 130 2 11 6 39 9 61 2 23 7 52 9 65 3 13 7 41 10 64 7 45 13 79 20 115 3 14
8 45 11 70 11 84 13 95 18 117 2 12 7 48 11 79 3 32 8 60 10 63 1 3 6 30 10
60 4 30 9 63 11 75 2 12 6 35 9 51 9 64 16 111 20 135 3 14 7 43 10 65 3 22 8
51 10 65 3 14 7 39 9 55 15 92 26 165 31 200 4 22 9 54 12 70 3 17 6 41 8 55
2 14 13 85 25 158 12 72 23 144 25 160 2 15 4 27 5 27 1 0 3 14 5 30 1 17 5
44 8 60 3 17 13 77 21 135 9 58 18 114 20 125 3 19 12 73 22 140 3 17 9 55 14
85 5 30 12 78 16 105 3 28 8 59 10 70 7 33 12 67 18 115 3 25 8 56 11 70 3 14
7 43 10 65 3 22 12 78 20 125 8 47 17 101 19 120 9 64 16 105 20 129 3 12 8
42 10 65 3 22 8 52 11 66 5 27 16 92 20 130 6 40 15 103 20 130 3 14 8 45 11
70 3 25 8 48 11 53 2 4 -113 7 -256 7 -144 0 -261 -3 -262 -7z"/>
<path d="M2280 6318 c-7 -46 -14 -90 -16 -99 -1 -9 -5 -32 -8 -50 -3 -19 -8
-45 -11 -59 -2 -14 -6 -41 -9 -60 -2 -19 -12 -80 -20 -135 -22 -135 -23 -136
-41 -245 -16 -90 -19 -112 -30 -205 -3 -21 -7 -47 -10 -56 -3 -9 -7 -30 -10
-45 -2 -16 -6 -42 -9 -59 -2 -16 -7 -48 -11 -70 -3 -22 -10 -65 -15 -95 -5
-30 -12 -73 -15 -95 -3 -22 -10 -62 -15 -90 -6 -27 -12 -68 -15 -90 -7 -51
-14 -93 -20 -125 -3 -14 -7 -41 -10 -60 -4 -35 -11 -83 -20 -130 -3 -14 -7
-38 -9 -55 -2 -16 -8 -50 -12 -75 -4 -25 -8 -52 -9 -60 -1 -8 -4 -28 -8 -45
-3 -16 -8 -46 -11 -65 -6 -43 -17 -107 -21 -129 -2 -9 -7 -44 -11 -76 -8 -62
-10 -73 -13 -77 -2 -2 -4 -15 -6 -31 -2 -15 -11 -73 -20 -130 -9 -56 -18 -115
-21 -132 -2 -16 -6 -41 -9 -55 -3 -14 -8 -45 -11 -70 -3 -25 -8 -53 -10 -63
-3 -10 -7 -32 -10 -50 -2 -18 -13 -90 -25 -162 -11 -71 -22 -139 -24 -150 -2
-11 -6 -38 -10 -60 -3 -22 -8 -51 -10 -65 -6 -37 -11 -71 -34 -210 -30 -191
-32 -203 -37 -235 -3 -16 -9 -52 -14 -80 -5 -27 -12 -68 -15 -90 -3 -22 -10
-69 -16 -105 -18 -110 -20 -124 -24 -165 -3 -21 -8 -48 -11 -58 -3 -11 -7 -29
-9 -40 -6 -48 -17 -123 -21 -142 -2 -10 -6 -37 -9 -60 -3 -22 -10 -62 -15 -90
-5 -27 -12 -70 -15 -95 -3 -25 -8 -52 -10 -60 -2 -8 -7 -33 -10 -55 -3 -23 -7
-50 -9 -60 -2 -11 -7 -40 -11 -65 -4 -25 -9 -52 -10 -61 -2 -9 -6 -40 -10 -70
-4 -30 -8 -56 -10 -59 -2 -3 -6 -27 -10 -55 -4 -27 -9 -59 -10 -70 -4 -23 -65
-403 -68 -419 -1 -8 119 -12 416 -14 392 -2 417 -1 418 15 0 10 2 27 5 38 2
11 6 40 9 65 2 25 7 56 9 70 3 14 8 45 11 70 4 25 9 61 12 80 3 19 7 44 8 55
2 21 13 98 22 150 8 49 10 67 17 125 4 30 13 96 21 145 21 136 25 166 31 210
2 22 6 49 9 60 2 11 4 25 4 31 1 7 160 10 511 10 l510 1 5 -31 c6 -43 24 -173
30 -221 3 -22 7 -51 10 -65 4 -23 8 -51 20 -137 2 -15 7 -50 11 -78 4 -27 7
-60 8 -72 0 -13 2 -23 6 -23 3 0 6 -12 6 -27 1 -36 14 -144 19 -163 3 -8 7
-35 10 -60 3 -25 7 -54 9 -65 2 -11 7 -45 10 -75 4 -30 9 -67 12 -82 l6 -28
445 0 445 0 -6 48 c-3 26 -8 58 -10 72 -3 14 -7 41 -10 60 -3 19 -8 46 -10 60
-2 14 -10 59 -16 100 -12 77 -16 103 -25 143 -3 13 -7 43 -9 68 -3 24 -5 44
-6 44 -1 0 -3 9 -5 20 -1 11 -6 37 -9 57 -3 21 -8 55 -11 75 -3 21 -9 61 -15
88 -5 28 -12 68 -15 90 -7 49 -9 65 -29 185 -9 52 -18 112 -22 134 -3 21 -8
48 -10 60 -3 11 -7 35 -9 51 -5 34 -7 50 -29 185 -8 52 -17 111 -20 130 -3 19
-8 46 -11 60 -2 13 -7 42 -10 65 -3 22 -11 67 -16 100 -5 33 -12 74 -14 90 -2
17 -10 62 -16 100 -7 39 -13 79 -14 90 -1 11 -5 31 -8 45 -3 14 -9 43 -11 65
-3 22 -8 51 -10 65 -5 27 -15 87 -21 135 -3 17 -7 41 -10 55 -3 14 -8 45 -11
70 -3 25 -8 54 -10 65 -5 23 -3 14 -50 309 -3 21 -8 48 -10 60 -2 11 -7 41
-10 66 -3 25 -8 54 -10 65 -6 27 -22 131 -29 180 -3 22 -10 60 -15 85 -5 25
-11 63 -14 85 -3 22 -8 51 -10 65 -3 14 -7 43 -11 64 -3 21 -7 48 -10 60 -2
12 -7 39 -9 61 -3 22 -8 51 -10 65 -7 38 -48 291 -51 320 -2 14 -6 36 -8 50
-6 27 -20 116 -23 140 -1 8 -4 31 -8 50 -12 74 -15 87 -26 160 -6 41 -14 86
-16 100 -2 14 -7 41 -10 60 -2 19 -7 46 -10 60 -2 14 -7 43 -9 64 -3 22 -8 53
-11 70 -4 17 -8 40 -9 51 -2 11 -9 52 -15 90 -6 39 -13 82 -15 97 -2 15 -9 53
-14 85 -10 56 -17 96 -26 158 -9 64 -15 101 -19 120 -2 11 -12 71 -21 133
l-17 112 -607 0 -607 0 -14 -82z m604 -1003 c9 -72 15 -116 20 -150 3 -16 8
-55 11 -85 3 -30 8 -62 10 -70 2 -8 7 -40 10 -70 3 -30 8 -62 10 -70 2 -8 6
-37 10 -65 5 -48 9 -73 19 -140 2 -16 7 -54 11 -84 4 -30 8 -63 11 -74 3 -18
8 -55 30 -214 2 -18 7 -50 10 -70 3 -21 7 -53 10 -72 2 -19 6 -46 9 -60 2 -14
6 -48 10 -76 3 -27 7 -61 10 -75 6 -29 13 -81 20 -135 2 -22 7 -56 9 -75 3
-19 8 -53 11 -75 3 -22 7 -51 10 -65 6 -42 13 -92 21 -155 3 -33 8 -69 10 -80
2 -10 6 -37 9 -60 3 -22 8 -51 10 -65 3 -14 7 -45 10 -70 8 -64 13 -100 20
-141 6 -36 12 -82 19 -154 3 -22 7 -53 10 -70 8 -46 14 -86 20 -130 3 -22 9
-57 12 -77 l6 -38 -405 0 -406 0 5 38 c3 20 9 62 14 92 6 30 12 78 15 105 2
28 6 59 9 70 2 11 7 43 11 70 3 28 9 66 11 85 3 19 7 53 9 75 3 22 7 51 9 65
3 14 8 49 11 79 4 30 8 61 10 70 1 9 6 41 10 71 4 30 9 64 11 75 2 11 6 46 9
78 3 32 7 62 9 66 3 4 7 30 10 58 3 29 7 67 10 85 3 18 8 50 11 71 5 39 12 83
20 145 3 20 8 57 11 82 3 25 7 56 10 70 2 14 7 45 10 70 2 25 7 56 9 69 2 13
7 45 10 70 4 25 9 62 11 81 3 19 7 51 10 70 2 19 6 51 9 70 12 85 17 117 20
150 2 19 6 44 8 55 3 11 8 45 11 76 4 31 9 67 11 80 3 13 7 44 11 69 10 82 14
116 19 140 3 14 7 51 10 84 4 33 8 63 10 67 3 4 8 35 11 70 3 35 9 68 12 73 7
13 18 -20 26 -79z"/>
<path d="M4274 5996 c1 -222 4 -408 8 -412 5 -4 214 -7 467 -7 l459 0 -2
-2469 -1 -2468 450 2 450 3 2 2430 c1 1337 2 2446 3 2466 l0 36 463 0 462 0 3
411 2 412 -1383 0 -1383 0 0 -404z"/>
</g>
</svg>
